<svg
width="40"
height="40"
viewBox="0 0 40 40"
fill="none"
xmlns="http://www.w3.org/2000/svg"
>
<circle
    cx="20"
    cy="20"
    r="20"
    fill="white"
    fill-opacity="0.1"
/>
<path
    d="M24.6929 20.2218C24.6396 19.1986 24.2837 18.2143 23.6704 17.3937C23.4835 17.5949 23.2838 17.7838 23.0724 17.9591C22.423 18.4985 21.6973 18.9388 20.9189 19.2656C21.0275 19.4931 21.1269 19.7135 21.2147 19.9215V19.9234C21.2395 19.9816 21.2633 20.0401 21.2862 20.0989C22.2703 19.9885 23.3077 20.0287 24.3132 20.1646C24.4472 20.1828 24.5732 20.2023 24.6929 20.2218ZM18.5926 15.3793C19.226 16.2719 19.8102 17.1984 20.3424 18.1548C21.1373 17.8415 21.7945 17.4463 22.3236 17.0062C22.5073 16.8549 22.6801 16.6909 22.841 16.5155C21.9056 15.7288 20.7222 15.2983 19.5 15.3C19.1958 15.2998 18.8922 15.3261 18.5926 15.3786V15.3793ZM14.4644 19.198C14.9072 19.1869 15.3495 19.1602 15.7905 19.1181C16.8562 19.0228 17.9129 18.8441 18.9507 18.5838C18.4083 17.6414 17.8227 16.7246 17.1957 15.8362C16.5261 16.168 15.9356 16.6399 15.4643 17.22C14.993 17.8 14.6521 18.4746 14.4644 19.198ZM15.4589 23.7727C15.7111 23.4042 16.0426 22.9895 16.4827 22.5384C17.4278 21.5699 18.5432 20.8159 19.8341 20.3999L19.8744 20.3882C19.7671 20.1516 19.6664 19.9404 19.565 19.7414C18.3716 20.0892 17.1145 20.3063 15.8619 20.4187C15.2509 20.474 14.703 20.498 14.3 20.5019C14.2988 21.6931 14.7084 22.8483 15.4596 23.7727H15.4589ZM21.4532 25.3197C21.2026 24.0557 20.8478 22.8145 20.3924 21.6089C19.0911 22.0814 18.0544 22.7724 17.253 23.5966C16.9295 23.9231 16.6425 24.2838 16.3969 24.6723C17.2931 25.3411 18.3818 25.7016 19.5 25.7C20.1694 25.701 20.8327 25.5723 21.4532 25.321V25.3197ZM22.6707 24.621C23.6855 23.8408 24.3768 22.7137 24.6122 21.4555C24.3912 21.4002 24.1111 21.345 23.803 21.3021C23.118 21.2035 22.4229 21.1962 21.736 21.2806C22.1228 22.3719 22.4351 23.4881 22.6707 24.6216V24.621ZM19.5 27C15.9101 27 13 24.0899 13 20.5C13 16.9101 15.9101 14 19.5 14C23.0899 14 26 16.9101 26 20.5C26 24.0899 23.0899 27 19.5 27Z"
    fill="white"
/>
</svg>