<svg
width="40"
height="40"
viewBox="0 0 40 40"
fill="none"
xmlns="http://www.w3.org/2000/svg"
>
<circle
    cx="20"
    cy="20"
    r="20"
    fill="white"
    fill-opacity="0.1"
/>
<path
    d="M26.5284 16.3058C26.0217 16.53 25.4844 16.6771 24.9342 16.7425C25.5141 16.3957 25.9482 15.8499 26.1554 15.2067C25.6112 15.5306 25.0145 15.7576 24.3926 15.8804C23.9749 15.4334 23.4212 15.137 22.8176 15.0372C22.214 14.9374 21.5944 15.0398 21.055 15.3285C20.5156 15.6172 20.0867 16.076 19.835 16.6336C19.5833 17.1911 19.5228 17.8163 19.663 18.4118C18.5593 18.3565 17.4796 18.0697 16.494 17.57C15.5083 17.0703 14.6388 16.3689 13.9418 15.5114C13.6951 15.9351 13.5655 16.4168 13.5661 16.9071C13.5661 17.8695 14.056 18.7197 14.8007 19.2175C14.36 19.2037 13.929 19.0846 13.5436 18.8704V18.9049C13.5437 19.5459 13.7655 20.167 14.1714 20.6631C14.5772 21.1592 15.1421 21.4997 15.7703 21.6268C15.3612 21.7377 14.9323 21.754 14.5159 21.6746C14.693 22.2263 15.0383 22.7088 15.5033 23.0545C15.9682 23.4003 16.5297 23.5919 17.109 23.6027C16.5333 24.0549 15.874 24.3892 15.1689 24.5864C14.4639 24.7837 13.7268 24.84 13 24.7522C14.2688 25.5682 15.7458 26.0014 17.2544 26C22.3603 26 25.1526 21.7702 25.1526 18.1018C25.1526 17.9824 25.1492 17.8616 25.1439 17.7434C25.6874 17.3506 26.1565 16.864 26.5291 16.3065L26.5284 16.3058Z"
    fill="white"
/>
</svg>