<svg width="14" height="14" viewBox="0 0 14 14" fill="none" xmlns="http://www.w3.org/2000/svg">
<path d="M6.53302 11.2736C6.75548 11.1393 7.034 11.1393 7.25645 11.2736L10.3534 13.1428C10.8835 13.4627 11.5375 12.9874 11.3968 12.3844L10.5749 8.86146C10.5159 8.60841 10.6019 8.34349 10.7983 8.17335L13.5355 5.80211C14.0035 5.39667 13.7533 4.62788 13.1363 4.57554L9.53376 4.26989C9.27506 4.24795 9.04975 4.08461 8.94844 3.84556L7.53924 0.520659C7.29803 -0.0484602 6.49145 -0.048461 6.25023 0.520659L4.84104 3.84556C4.73972 4.08461 4.51442 4.24795 4.25571 4.26989L0.653143 4.57554C0.0361449 4.62788 -0.214043 5.39666 0.253976 5.80211L2.99118 8.17335C3.18758 8.34349 3.27357 8.60841 3.21454 8.86146L2.39268 12.3844C2.25201 12.9874 2.90597 13.4627 3.43609 13.1428L6.53302 11.2736Z" fill="#FF6400"/>
</svg>
